<svg viewBox="0 0 1024 1024" version="1.1" xmlns="http://www.w3.org/2000/svg" width="200" height="200">
    <path d="M757.461333 597.333333a96 96 0 0 1 96 96v38.613334A160 160 0 0 1 797.696 853.333333C730.88 910.677333 635.306667 938.709333 512 938.709333c-123.306667 0-218.794667-28.032-285.482667-85.333333a160 160 0 0 1-55.722666-121.344v-38.698667A96 96 0 0 1 266.794667 597.333333h490.666666z m0 64h-490.666666a32 32 0 0 0-32 32v38.698667c0 27.989333 12.202667 54.570667 33.450666 72.789333C321.92 850.986667 402.773333 874.709333 512 874.709333c109.226667 0 190.208-23.722667 244.010667-69.930666a96 96 0 0 0 33.450666-72.832v-38.613334a32 32 0 0 0-32-32zM507.648 85.632L512 85.333333a32 32 0 0 1 31.701333 27.690667l0.298667 4.309333v32h149.333333a96 96 0 0 1 96 96v192.213334a96 96 0 0 1-96 96h-362.666666a96 96 0 0 1-96-96V245.333333A96 96 0 0 1 330.666667 149.333333h149.333333v-32a32 32 0 0 1 27.648-31.701333L512 85.333333l-4.352 0.298667zM693.333333 213.333333h-362.666666a32 32 0 0 0-32 32v192.213334c0 17.664 14.336 32 32 32h362.666666a32 32 0 0 0 32-32V245.333333a32 32 0 0 0-32-32z m-277.333333 64a53.333333 53.333333 0 1 1 0 106.624 53.333333 53.333333 0 0 1 0-106.624z m191.658667 0a53.333333 53.333333 0 1 1 0 106.624 53.333333 53.333333 0 0 1 0-106.624z" fill="#212121"/>
</svg>
