<?xml version="1.0" encoding="UTF-8"?>
<svg width="180px" height="180px" viewBox="0 0 180 180" version="1.1" xmlns="http://www.w3.org/2000/svg" xmlns:xlink="http://www.w3.org/1999/xlink">
    <title>darkseal</title>
    <g id="darkseal" stroke="none" stroke-width="1" fill="none" fill-rule="evenodd">
        <polygon id="Path" fill="#3CEA8E" points="24.1314615 87.4426749 87.4343632 25.0055478 153.030512 25.0055478 24.1314615 154.721805"></polygon>
        <path d="M88.5809865,89.8636762 L88.5809865,154.721805 L155.783524,154.721805 C154.652866,148.722084 153.735195,144.236195 153.030512,141.264138 C152.325828,138.292081 151.254033,134.387239 149.815126,129.549612 C147.434336,124.210326 145.392826,120.321477 143.690595,117.883066 C141.988364,115.444655 139.007304,112.138774 134.747415,107.965421 C131.100771,104.483557 128.134578,101.964726 125.848835,100.408927 C123.563093,98.853128 119.829672,96.8118429 114.648573,94.2850717 C108.67132,92.4869701 104.187566,91.3343265 101.197311,90.827141 C98.2070553,90.3199556 94.0016139,89.9988006 88.5809865,89.8636762 Z" id="Path-2" fill="#2B8DFF"></path>
    </g>
</svg>